<svg width="1600" height="1600" viewBox="83.16721044517502 119.46139417601 321.9934746579 321.9934746579" xmlns="http://www.w3.org/2000/svg" xmlns:xlink="http://www.w3.org/1999/xlink"><g class="icon-group" data-width="268.32789554825" data-height="242.11550657371998" data-x="110" data-y="159.4003782181"><g id="shape_StCY3kEqoi" ref="shape_StCY3kEqoi" key="shape_StCY3kEqoi" mask="" class=" icon">
<g transform="translate(120,169.4003782181) rotate(0,124.16394777412,111.05775328686) scale(1,1)" style="opacity: 1;mix-blend-mode: undefined;" filter="">
<!--普通元素-->
<svg id="_圖層_1" data-name="圖層_1" xmlns="http://www.w3.org/2000/svg" version="1.1" xmlns:xlink="http://www.w3.org/1999/xlink" viewBox="11 16 180 161" width="248.32789554825" height="222.11550657372" class="style-removed" preserveAspectRatio="none" data-parent="shape_StCY3kEqoi">
<!-- Generator: Adobe Illustrator 29.6.1, SVG Export Plug-In . SVG Version: 2.1.1 Build 9) -->
<defs>
<linearGradient id="GradientFill_4" data-name="GradientFill 4" x1="14.3" y1="57.2" x2="190.96" y2="57.2" gradientUnits="userSpaceOnUse">
<stop offset="0" stop-color="#023b7b" data-ignorecolor=""></stop>
<stop offset="1" stop-color="#13b7c5" data-ignorecolor=""></stop>
</linearGradient>
<linearGradient id="_未命名的渐变_5" data-name="未命名的渐变 5" x1="99.63" y1="91.89" x2="99.63" y2="175.69" gradientUnits="userSpaceOnUse">
<stop offset="0" stop-color="#372cc4" data-ignorecolor=""></stop>
<stop offset="1" stop-color="#00a6ff" data-ignorecolor=""></stop>
</linearGradient>
</defs>
<path d="M190.96,15.3l-9.8,24.33h-95.29c-7.74,0-19.56,2.89-25.5,15.63l-15.35,32.74h17.57l9.9-21.98c1.84-4.09,7.91-11.29,21.18-10.76h81.2l-17.2,36.63-55.59-12.49-10.36,19.7H14.3l26.08-56.14s13.87-27.66,46.15-27.66h104.42Z" fill="url(#GradientFill_4)" fill-rule="evenodd" stroke-width="0"></path>
<path d="M11.31,175.69l9.8-24.33h95.29c7.74,0,19.56-2.89,25.5-15.63l15.35-32.74h-17.57l-9.9,21.98c-1.84,4.09-7.91,11.29-21.18,10.76H27.4l17.2-36.63,55.59,12.49,10.36-19.7h77.41l-26.08,56.14s-13.87,27.66-46.15,27.66H11.31Z" fill="url(#_未命名的渐变_5)" fill-rule="evenodd" stroke-width="0"></path>
</svg>
</g>
</g></g></svg>
